<svg width="32" height="28" viewBox="0 0 32 28" fill="none" xmlns="http://www.w3.org/2000/svg">
<path d="M16 16C16.55 16 17 16.45 17 17V21C17 21.55 16.55 22 16 22C15.45 22 15 21.55 15 21V17C15 16.45 15.45 16 16 16Z" fill="#414141"/>
<path d="M22 17C22 16.45 21.55 16 21 16C20.45 16 20 16.45 20 17V21C20 21.55 20.45 22 21 22C21.55 22 22 21.55 22 21V17Z" fill="#414141"/>
<path d="M11 16C11.55 16 12 16.45 12 17V21C12 21.55 11.55 22 11 22C10.45 22 10 21.55 10 21V17C10 16.45 10.45 16 11 16Z" fill="#414141"/>
<path fill-rule="evenodd" clip-rule="evenodd" d="M21.6342 9.00138L18.3544 1.35191C18.1372 0.831947 18.4342 0.262071 19.0285 0.0620855C19.6227 -0.127901 20.2742 0.132046 20.5028 0.652009L23.9314 8.65143C23.9771 8.76142 24 8.88139 24 9.00138H28.56C28.56 9.00138 28.5714 9.00138 28.5829 9.00138H30.8571C31.4857 9.00138 32 9.45135 32 10.0013C32 10.5513 31.4857 11.0012 30.8571 11.0012H29.6113L28.1828 23.5003C27.897 26.0501 25.4399 28 22.5028 28H9.49721C6.56007 28 4.10296 26.0501 3.81724 23.5003L2.38867 11.0012H1.14286C0.514286 11.0012 0 10.5513 0 10.0013C0 9.45135 0.514286 9.00138 1.14286 9.00138H8C8 8.88139 8.02292 8.76142 8.06864 8.65143L11.4972 0.652009C11.7258 0.132046 12.3773 -0.127901 12.9715 0.0620855C13.5658 0.262071 13.8628 0.831947 13.6456 1.35191L10.3658 9.00138H21.6342ZM6.09152 23.3004L4.68583 11.0012H27.3142L25.9085 23.3004C25.7371 24.8303 24.2628 26.0001 22.5028 26.0001H9.49721C7.73721 26.0001 6.26295 24.8303 6.09152 23.3004Z" fill="#414141"/>
</svg>
