<svg width="22" height="23" viewBox="0 0 22 23" fill="none" xmlns="http://www.w3.org/2000/svg">
<path d="M18.42 10.75H15C14.59 10.75 14.25 10.41 14.25 10V3.01C14.25 2.27 14.54 1.58 15.06 1.06C15.58 0.540001 16.27 0.25 17.01 0.25H17.02C18.27 0.26 19.45 0.749999 20.35 1.64C21.25 2.55 21.74 3.75 21.74 5V7.42C21.75 9.41 20.41 10.75 18.42 10.75ZM15.75 9.25H18.42C19.58 9.25 20.25 8.58 20.25 7.42V5C20.25 4.14 19.91 3.32 19.3 2.7C18.69 2.1 17.87 1.76 17.02 1.75C17.02 1.75 17.02 1.75 17.01 1.75C16.68 1.75 16.36 1.88 16.12 2.12C15.88 2.36 15.75 2.67 15.75 3.01V9.25V9.25Z" fill="#414141"/>
<path d="M8 22.33C7.53 22.33 7.09 22.15 6.76 21.81L5.1 20.14C5.01 20.05 4.87 20.04 4.77 20.12L3.05 21.4C2.52 21.8 1.82 21.87 1.22 21.57C0.62 21.27 0.25 20.67 0.25 20V5C0.25 1.98 1.98 0.25 5 0.25H17C17.41 0.25 17.75 0.59 17.75 1C17.75 1.41 17.41 1.75 17 1.75C16.31 1.75 15.75 2.31 15.75 3V20C15.75 20.67 15.38 21.27 14.78 21.57C14.18 21.87 13.48 21.81 12.95 21.41L11.24 20.13C11.14 20.05 11 20.07 10.92 20.15L9.24 21.83C8.91 22.15 8.47 22.33 8 22.33ZM4.91 18.57C5.37 18.57 5.82 18.74 6.16 19.09L7.82 20.76C7.88 20.82 7.96 20.83 8 20.83C8.04 20.83 8.12 20.82 8.18 20.76L9.86 19.08C10.48 18.46 11.46 18.4 12.15 18.93L13.85 20.2C13.96 20.28 14.06 20.25 14.11 20.22C14.16 20.19 14.25 20.13 14.25 20V3C14.25 2.55 14.36 2.12 14.55 1.75H5C2.78 1.75 1.75 2.78 1.75 5V20C1.75 20.14 1.84 20.2 1.89 20.23C1.95 20.26 2.05 20.28 2.15 20.2L3.86 18.92C4.17 18.69 4.54 18.57 4.91 18.57Z" fill="#414141"/>
<path d="M11 12.7598H8C7.59 12.7598 7.25 12.4198 7.25 12.0098C7.25 11.5998 7.59 11.2598 8 11.2598H11C11.41 11.2598 11.75 11.5998 11.75 12.0098C11.75 12.4198 11.41 12.7598 11 12.7598Z" fill="#414141"/>
<path d="M11 8.75977H8C7.59 8.75977 7.25 8.41977 7.25 8.00977C7.25 7.59977 7.59 7.25977 8 7.25977H11C11.41 7.25977 11.75 7.59977 11.75 8.00977C11.75 8.41977 11.41 8.75977 11 8.75977Z" fill="#414141"/>
<path d="M4.97021 9.00977C4.42021 9.00977 3.97021 8.55977 3.97021 8.00977C3.97021 7.45977 4.42021 7.00977 4.97021 7.00977C5.52021 7.00977 5.97021 7.45977 5.97021 8.00977C5.97021 8.55977 5.52021 9.00977 4.97021 9.00977Z" fill="#414141"/>
<path d="M4.97021 13.0098C4.42021 13.0098 3.97021 12.5598 3.97021 12.0098C3.97021 11.4598 4.42021 11.0098 4.97021 11.0098C5.52021 11.0098 5.97021 11.4598 5.97021 12.0098C5.97021 12.5598 5.52021 13.0098 4.97021 13.0098Z" fill="#414141"/>
</svg>
